<?xml version="1.0" encoding="utf-8" standalone="no"?>
<!DOCTYPE svg PUBLIC "-//W3C//DTD SVG 1.1//EN"
  "http://www.w3.org/Graphics/SVG/1.1/DTD/svg11.dtd">
<svg xmlns:xlink="http://www.w3.org/1999/xlink" width="908.64pt" height="578.88pt" viewBox="0 0 908.64 578.88" xmlns="http://www.w3.org/2000/svg" version="1.1">
 <metadata>
  <rdf:RDF xmlns:dc="http://purl.org/dc/elements/1.1/" xmlns:cc="http://creativecommons.org/ns#" xmlns:rdf="http://www.w3.org/1999/02/22-rdf-syntax-ns#">
   <cc:Work>
    <dc:type rdf:resource="http://purl.org/dc/dcmitype/StillImage"/>
    <dc:date>2025-12-14T21:54:15.426659</dc:date>
    <dc:format>image/svg+xml</dc:format>
    <dc:creator>
     <cc:Agent>
      <dc:title>Matplotlib v3.7.2, https://matplotlib.org/</dc:title>
     </cc:Agent>
    </dc:creator>
   </cc:Work>
  </rdf:RDF>
 </metadata>
 <defs>
  <style type="text/css">*{stroke-linejoin: round; stroke-linecap: butt}</style>
 </defs>
 <g id="figure_1">
  <g id="patch_1">
   <path d="M 0 578.88 
L 908.64 578.88 
L 908.64 0 
L 0 0 
z
" style="fill: #ffffff"/>
  </g>
  <g id="axes_1">
   <g id="patch_2">
    <path d="M 76.845704 489.316765 
L 869.11416 489.316765 
L 869.11416 25.538824 
L 76.845704 25.538824 
z
" style="fill: #ffffff"/>
   </g>
   <g id="patch_3">
    <path d="M 773.61197 489.316765 
L 773.61197 25.538824 
L 789.529002 25.538824 
L 789.529002 489.316765 
z
" clip-path="url(#p96db6b5e15)" style="fill: #bfbfbf; opacity: 0.4; stroke: #bfbfbf; stroke-linejoin: miter"/>
   </g>
   <g id="patch_4">
    <path d="M 224.474381 489.316765 
L 224.474381 25.538824 
L 236.412154 25.538824 
L 236.412154 489.316765 
z
" clip-path="url(#p96db6b5e15)" style="fill: #d62728; opacity: 0.18; stroke: #d62728; stroke-linejoin: miter"/>
   </g>
   <g id="matplotlib.axis_1">
    <g id="xtick_1">
     <g id="line2d_1">
      <defs>
       <path id="m688b838839" d="M 0 0 
L 0 -4 
" style="stroke: #000000; stroke-width: 0.8"/>
      </defs>
      <g>
       <use xlink:href="#m688b838839" x="76.845704" y="489.316765" style="stroke: #000000; stroke-width: 0.8"/>
      </g>
     </g>
     <g id="line2d_2">
      <defs>
       <path id="mb7d80de501" d="M 0 0 
L 0 4 
" style="stroke: #000000; stroke-width: 0.8"/>
      </defs>
      <g>
       <use xlink:href="#mb7d80de501" x="76.845704" y="25.538824" style="stroke: #000000; stroke-width: 0.8"/>
      </g>
     </g>
     <g id="text_1">
      <!-- 0 -->
      <g transform="translate(73.664454 500.415202) scale(0.1 -0.1)">
       <defs>
        <path id="DejaVuSerif-30" d="M 2034 219 
Q 2513 219 2750 744 
Q 2988 1269 2988 2328 
Q 2988 3391 2750 3916 
Q 2513 4441 2034 4441 
Q 1556 4441 1318 3916 
Q 1081 3391 1081 2328 
Q 1081 1269 1318 744 
Q 1556 219 2034 219 
z
M 2034 -91 
Q 1275 -91 848 546 
Q 422 1184 422 2328 
Q 422 3475 848 4112 
Q 1275 4750 2034 4750 
Q 2797 4750 3222 4112 
Q 3647 3475 3647 2328 
Q 3647 1184 3222 546 
Q 2797 -91 2034 -91 
z
" transform="scale(0.015625)"/>
       </defs>
       <use xlink:href="#DejaVuSerif-30"/>
      </g>
     </g>
    </g>
    <g id="xtick_2">
     <g id="line2d_3">
      <g>
       <use xlink:href="#m688b838839" x="175.879261" y="489.316765" style="stroke: #000000; stroke-width: 0.8"/>
      </g>
     </g>
     <g id="line2d_4">
      <g>
       <use xlink:href="#mb7d80de501" x="175.879261" y="25.538824" style="stroke: #000000; stroke-width: 0.8"/>
      </g>
     </g>
     <g id="text_2">
      <!-- 250 -->
      <g transform="translate(166.335511 500.415202) scale(0.1 -0.1)">
       <defs>
        <path id="DejaVuSerif-32" d="M 819 3553 
L 469 3553 
L 469 4384 
Q 803 4563 1142 4656 
Q 1481 4750 1806 4750 
Q 2534 4750 2956 4397 
Q 3378 4044 3378 3438 
Q 3378 2753 2422 1800 
Q 2347 1728 2309 1691 
L 1131 513 
L 3078 513 
L 3078 1088 
L 3444 1088 
L 3444 0 
L 434 0 
L 434 341 
L 1850 1753 
Q 2319 2222 2519 2614 
Q 2719 3006 2719 3438 
Q 2719 3909 2473 4175 
Q 2228 4441 1797 4441 
Q 1350 4441 1106 4219 
Q 863 3997 819 3553 
z
" transform="scale(0.015625)"/>
        <path id="DejaVuSerif-35" d="M 3219 4666 
L 3219 4153 
L 1081 4153 
L 1081 2816 
Q 1244 2928 1461 2984 
Q 1678 3041 1947 3041 
Q 2703 3041 3140 2622 
Q 3578 2203 3578 1478 
Q 3578 738 3136 323 
Q 2694 -91 1894 -91 
Q 1572 -91 1234 -12 
Q 897 66 544 225 
L 544 1131 
L 897 1131 
Q 925 688 1179 453 
Q 1434 219 1894 219 
Q 2388 219 2653 544 
Q 2919 869 2919 1478 
Q 2919 2084 2655 2407 
Q 2391 2731 1894 2731 
Q 1613 2731 1398 2631 
Q 1184 2531 1019 2322 
L 750 2322 
L 750 4666 
L 3219 4666 
z
" transform="scale(0.015625)"/>
       </defs>
       <use xlink:href="#DejaVuSerif-32"/>
       <use xlink:href="#DejaVuSerif-35" x="63.623047"/>
       <use xlink:href="#DejaVuSerif-30" x="127.246094"/>
      </g>
     </g>
    </g>
    <g id="xtick_3">
     <g id="line2d_5">
      <g>
       <use xlink:href="#m688b838839" x="274.912818" y="489.316765" style="stroke: #000000; stroke-width: 0.8"/>
      </g>
     </g>
     <g id="line2d_6">
      <g>
       <use xlink:href="#mb7d80de501" x="274.912818" y="25.538824" style="stroke: #000000; stroke-width: 0.8"/>
      </g>
     </g>
     <g id="text_3">
      <!-- 500 -->
      <g transform="translate(265.369068 500.415202) scale(0.1 -0.1)">
       <use xlink:href="#DejaVuSerif-35"/>
       <use xlink:href="#DejaVuSerif-30" x="63.623047"/>
       <use xlink:href="#DejaVuSerif-30" x="127.246094"/>
      </g>
     </g>
    </g>
    <g id="xtick_4">
     <g id="line2d_7">
      <g>
       <use xlink:href="#m688b838839" x="373.946375" y="489.316765" style="stroke: #000000; stroke-width: 0.8"/>
      </g>
     </g>
     <g id="line2d_8">
      <g>
       <use xlink:href="#mb7d80de501" x="373.946375" y="25.538824" style="stroke: #000000; stroke-width: 0.8"/>
      </g>
     </g>
     <g id="text_4">
      <!-- 750 -->
      <g transform="translate(364.402625 500.415202) scale(0.1 -0.1)">
       <defs>
        <path id="DejaVuSerif-37" d="M 3609 4347 
L 1784 0 
L 1319 0 
L 3059 4153 
L 903 4153 
L 903 3578 
L 538 3578 
L 538 4666 
L 3609 4666 
L 3609 4347 
z
" transform="scale(0.015625)"/>
       </defs>
       <use xlink:href="#DejaVuSerif-37"/>
       <use xlink:href="#DejaVuSerif-35" x="63.623047"/>
       <use xlink:href="#DejaVuSerif-30" x="127.246094"/>
      </g>
     </g>
    </g>
    <g id="xtick_5">
     <g id="line2d_9">
      <g>
       <use xlink:href="#m688b838839" x="472.979932" y="489.316765" style="stroke: #000000; stroke-width: 0.8"/>
      </g>
     </g>
     <g id="line2d_10">
      <g>
       <use xlink:href="#mb7d80de501" x="472.979932" y="25.538824" style="stroke: #000000; stroke-width: 0.8"/>
      </g>
     </g>
     <g id="text_5">
      <!-- 1000 -->
      <g transform="translate(460.254932 500.415202) scale(0.1 -0.1)">
       <defs>
        <path id="DejaVuSerif-31" d="M 909 0 
L 909 331 
L 1722 331 
L 1722 4213 
L 781 3603 
L 781 4013 
L 1919 4750 
L 2350 4750 
L 2350 331 
L 3163 331 
L 3163 0 
L 909 0 
z
" transform="scale(0.015625)"/>
       </defs>
       <use xlink:href="#DejaVuSerif-31"/>
       <use xlink:href="#DejaVuSerif-30" x="63.623047"/>
       <use xlink:href="#DejaVuSerif-30" x="127.246094"/>
       <use xlink:href="#DejaVuSerif-30" x="190.869141"/>
      </g>
     </g>
    </g>
    <g id="xtick_6">
     <g id="line2d_11">
      <g>
       <use xlink:href="#m688b838839" x="572.013489" y="489.316765" style="stroke: #000000; stroke-width: 0.8"/>
      </g>
     </g>
     <g id="line2d_12">
      <g>
       <use xlink:href="#mb7d80de501" x="572.013489" y="25.538824" style="stroke: #000000; stroke-width: 0.8"/>
      </g>
     </g>
     <g id="text_6">
      <!-- 1250 -->
      <g transform="translate(559.288489 500.415202) scale(0.1 -0.1)">
       <use xlink:href="#DejaVuSerif-31"/>
       <use xlink:href="#DejaVuSerif-32" x="63.623047"/>
       <use xlink:href="#DejaVuSerif-35" x="127.246094"/>
       <use xlink:href="#DejaVuSerif-30" x="190.869141"/>
      </g>
     </g>
    </g>
    <g id="xtick_7">
     <g id="line2d_13">
      <g>
       <use xlink:href="#m688b838839" x="671.047046" y="489.316765" style="stroke: #000000; stroke-width: 0.8"/>
      </g>
     </g>
     <g id="line2d_14">
      <g>
       <use xlink:href="#mb7d80de501" x="671.047046" y="25.538824" style="stroke: #000000; stroke-width: 0.8"/>
      </g>
     </g>
     <g id="text_7">
      <!-- 1500 -->
      <g transform="translate(658.322046 500.415202) scale(0.1 -0.1)">
       <use xlink:href="#DejaVuSerif-31"/>
       <use xlink:href="#DejaVuSerif-35" x="63.623047"/>
       <use xlink:href="#DejaVuSerif-30" x="127.246094"/>
       <use xlink:href="#DejaVuSerif-30" x="190.869141"/>
      </g>
     </g>
    </g>
    <g id="xtick_8">
     <g id="line2d_15">
      <g>
       <use xlink:href="#m688b838839" x="770.080603" y="489.316765" style="stroke: #000000; stroke-width: 0.8"/>
      </g>
     </g>
     <g id="line2d_16">
      <g>
       <use xlink:href="#mb7d80de501" x="770.080603" y="25.538824" style="stroke: #000000; stroke-width: 0.8"/>
      </g>
     </g>
     <g id="text_8">
      <!-- 1750 -->
      <g transform="translate(757.355603 500.415202) scale(0.1 -0.1)">
       <use xlink:href="#DejaVuSerif-31"/>
       <use xlink:href="#DejaVuSerif-37" x="63.623047"/>
       <use xlink:href="#DejaVuSerif-35" x="127.246094"/>
       <use xlink:href="#DejaVuSerif-30" x="190.869141"/>
      </g>
     </g>
    </g>
    <g id="xtick_9">
     <g id="line2d_17">
      <g>
       <use xlink:href="#m688b838839" x="869.11416" y="489.316765" style="stroke: #000000; stroke-width: 0.8"/>
      </g>
     </g>
     <g id="line2d_18">
      <g>
       <use xlink:href="#mb7d80de501" x="869.11416" y="25.538824" style="stroke: #000000; stroke-width: 0.8"/>
      </g>
     </g>
     <g id="text_9">
      <!-- 2000 -->
      <g transform="translate(856.38916 500.415202) scale(0.1 -0.1)">
       <use xlink:href="#DejaVuSerif-32"/>
       <use xlink:href="#DejaVuSerif-30" x="63.623047"/>
       <use xlink:href="#DejaVuSerif-30" x="127.246094"/>
       <use xlink:href="#DejaVuSerif-30" x="190.869141"/>
      </g>
     </g>
    </g>
    <g id="text_10">
     <!-- Pb-loss age (Ma) -->
     <g transform="translate(430.662745 514.093327) scale(0.1 -0.1)">
      <defs>
       <path id="DejaVuSerif-50" d="M 1581 2375 
L 2406 2375 
Q 2872 2375 3115 2626 
Q 3359 2878 3359 3353 
Q 3359 3831 3115 4081 
Q 2872 4331 2406 4331 
L 1581 4331 
L 1581 2375 
z
M 353 0 
L 353 331 
L 947 331 
L 947 4331 
L 353 4331 
L 353 4666 
L 2559 4666 
Q 3259 4666 3668 4311 
Q 4078 3956 4078 3353 
Q 4078 2753 3668 2397 
Q 3259 2041 2559 2041 
L 1581 2041 
L 1581 331 
L 2303 331 
L 2303 0 
L 353 0 
z
" transform="scale(0.015625)"/>
       <path id="DejaVuSerif-62" d="M 738 331 
L 738 4531 
L 184 4531 
L 184 4863 
L 1313 4863 
L 1313 2803 
Q 1481 3116 1742 3264 
Q 2003 3413 2388 3413 
Q 3000 3413 3387 2928 
Q 3775 2444 3775 1663 
Q 3775 881 3387 395 
Q 3000 -91 2388 -91 
Q 2003 -91 1742 57 
Q 1481 206 1313 519 
L 1313 0 
L 184 0 
L 184 331 
L 738 331 
z
M 1313 1497 
Q 1313 897 1542 583 
Q 1772 269 2209 269 
Q 2650 269 2876 622 
Q 3103 975 3103 1663 
Q 3103 2353 2876 2703 
Q 2650 3053 2209 3053 
Q 1772 3053 1542 2737 
Q 1313 2422 1313 1825 
L 1313 1497 
z
" transform="scale(0.015625)"/>
       <path id="DejaVuSerif-2d" d="M 281 1959 
L 1881 1959 
L 1881 1472 
L 281 1472 
L 281 1959 
z
" transform="scale(0.015625)"/>
       <path id="DejaVuSerif-6c" d="M 1313 331 
L 1856 331 
L 1856 0 
L 184 0 
L 184 331 
L 738 331 
L 738 4531 
L 184 4531 
L 184 4863 
L 1313 4863 
L 1313 331 
z
" transform="scale(0.015625)"/>
       <path id="DejaVuSerif-6f" d="M 1925 219 
Q 2388 219 2623 584 
Q 2859 950 2859 1663 
Q 2859 2375 2623 2739 
Q 2388 3103 1925 3103 
Q 1463 3103 1227 2739 
Q 991 2375 991 1663 
Q 991 950 1228 584 
Q 1466 219 1925 219 
z
M 1925 -91 
Q 1200 -91 759 389 
Q 319 869 319 1663 
Q 319 2456 758 2934 
Q 1197 3413 1925 3413 
Q 2653 3413 3092 2934 
Q 3531 2456 3531 1663 
Q 3531 869 3092 389 
Q 2653 -91 1925 -91 
z
" transform="scale(0.015625)"/>
       <path id="DejaVuSerif-73" d="M 359 184 
L 359 959 
L 691 959 
Q 703 588 923 403 
Q 1144 219 1575 219 
Q 1963 219 2166 364 
Q 2369 509 2369 788 
Q 2369 1006 2220 1140 
Q 2072 1275 1594 1428 
L 1178 1569 
Q 750 1706 558 1912 
Q 366 2119 366 2438 
Q 366 2894 700 3153 
Q 1034 3413 1625 3413 
Q 1888 3413 2178 3344 
Q 2469 3275 2778 3144 
L 2778 2419 
L 2447 2419 
Q 2434 2741 2221 2922 
Q 2009 3103 1644 3103 
Q 1281 3103 1095 2975 
Q 909 2847 909 2591 
Q 909 2381 1050 2254 
Q 1191 2128 1613 1997 
L 2069 1856 
Q 2541 1709 2748 1489 
Q 2956 1269 2956 922 
Q 2956 450 2595 179 
Q 2234 -91 1600 -91 
Q 1278 -91 972 -22 
Q 666 47 359 184 
z
" transform="scale(0.015625)"/>
       <path id="DejaVuSerif-20" transform="scale(0.015625)"/>
       <path id="DejaVuSerif-61" d="M 2547 1044 
L 2547 1747 
L 1806 1747 
Q 1378 1747 1168 1562 
Q 959 1378 959 997 
Q 959 650 1171 447 
Q 1384 244 1747 244 
Q 2106 244 2326 466 
Q 2547 688 2547 1044 
z
M 3122 2075 
L 3122 331 
L 3634 331 
L 3634 0 
L 2547 0 
L 2547 359 
Q 2356 128 2106 18 
Q 1856 -91 1522 -91 
Q 969 -91 644 203 
Q 319 497 319 997 
Q 319 1513 691 1797 
Q 1063 2081 1741 2081 
L 2547 2081 
L 2547 2309 
Q 2547 2688 2317 2895 
Q 2088 3103 1672 3103 
Q 1328 3103 1125 2947 
Q 922 2791 872 2484 
L 575 2484 
L 575 3156 
Q 875 3284 1158 3348 
Q 1441 3413 1709 3413 
Q 2400 3413 2761 3070 
Q 3122 2728 3122 2075 
z
" transform="scale(0.015625)"/>
       <path id="DejaVuSerif-67" d="M 3359 2988 
L 3359 72 
Q 3359 -644 2965 -1033 
Q 2572 -1422 1844 -1422 
Q 1516 -1422 1216 -1362 
Q 916 -1303 641 -1184 
L 641 -488 
L 941 -488 
Q 997 -813 1206 -963 
Q 1416 -1113 1806 -1113 
Q 2313 -1113 2548 -827 
Q 2784 -541 2784 72 
L 2784 519 
Q 2616 206 2355 57 
Q 2094 -91 1709 -91 
Q 1097 -91 708 395 
Q 319 881 319 1663 
Q 319 2444 706 2928 
Q 1094 3413 1709 3413 
Q 2094 3413 2355 3264 
Q 2616 3116 2784 2803 
L 2784 3322 
L 3909 3322 
L 3909 2988 
L 3359 2988 
z
M 2784 1825 
Q 2784 2422 2554 2737 
Q 2325 3053 1888 3053 
Q 1444 3053 1217 2703 
Q 991 2353 991 1663 
Q 991 975 1217 622 
Q 1444 269 1888 269 
Q 2325 269 2554 583 
Q 2784 897 2784 1497 
L 2784 1825 
z
" transform="scale(0.015625)"/>
       <path id="DejaVuSerif-65" d="M 3469 1600 
L 991 1600 
L 991 1575 
Q 991 903 1244 561 
Q 1497 219 1991 219 
Q 2369 219 2611 417 
Q 2853 616 2950 1006 
L 3413 1006 
Q 3275 459 2904 184 
Q 2534 -91 1931 -91 
Q 1203 -91 761 389 
Q 319 869 319 1663 
Q 319 2450 753 2931 
Q 1188 3413 1894 3413 
Q 2647 3413 3050 2948 
Q 3453 2484 3469 1600 
z
M 2791 1931 
Q 2772 2513 2545 2808 
Q 2319 3103 1894 3103 
Q 1497 3103 1269 2806 
Q 1041 2509 991 1931 
L 2791 1931 
z
" transform="scale(0.015625)"/>
       <path id="DejaVuSerif-28" d="M 2041 -997 
Q 1281 -656 893 83 
Q 506 822 506 1931 
Q 506 3044 893 3783 
Q 1281 4522 2041 4863 
L 2041 4556 
Q 1559 4225 1350 3623 
Q 1141 3022 1141 1931 
Q 1141 844 1350 242 
Q 1559 -359 2041 -691 
L 2041 -997 
z
" transform="scale(0.015625)"/>
       <path id="DejaVuSerif-4d" d="M 353 0 
L 353 331 
L 947 331 
L 947 4331 
L 319 4331 
L 319 4666 
L 1678 4666 
L 3316 1344 
L 4953 4666 
L 6228 4666 
L 6228 4331 
L 5606 4331 
L 5606 331 
L 6203 331 
L 6203 0 
L 4378 0 
L 4378 331 
L 4972 331 
L 4972 3938 
L 3372 684 
L 2931 684 
L 1331 3938 
L 1331 331 
L 1925 331 
L 1925 0 
L 353 0 
z
" transform="scale(0.015625)"/>
       <path id="DejaVuSerif-29" d="M 453 -997 
L 453 -691 
Q 934 -359 1145 242 
Q 1356 844 1356 1931 
Q 1356 3022 1145 3623 
Q 934 4225 453 4556 
L 453 4863 
Q 1216 4522 1603 3783 
Q 1991 3044 1991 1931 
Q 1991 822 1603 83 
Q 1216 -656 453 -997 
z
" transform="scale(0.015625)"/>
      </defs>
      <use xlink:href="#DejaVuSerif-50"/>
      <use xlink:href="#DejaVuSerif-62" x="67.285156"/>
      <use xlink:href="#DejaVuSerif-2d" x="131.298828"/>
      <use xlink:href="#DejaVuSerif-6c" x="165.087891"/>
      <use xlink:href="#DejaVuSerif-6f" x="197.070312"/>
      <use xlink:href="#DejaVuSerif-73" x="257.275391"/>
      <use xlink:href="#DejaVuSerif-73" x="308.59375"/>
      <use xlink:href="#DejaVuSerif-20" x="359.912109"/>
      <use xlink:href="#DejaVuSerif-61" x="391.699219"/>
      <use xlink:href="#DejaVuSerif-67" x="451.318359"/>
      <use xlink:href="#DejaVuSerif-65" x="515.332031"/>
      <use xlink:href="#DejaVuSerif-20" x="574.511719"/>
      <use xlink:href="#DejaVuSerif-28" x="606.298828"/>
      <use xlink:href="#DejaVuSerif-4d" x="645.3125"/>
      <use xlink:href="#DejaVuSerif-61" x="747.705078"/>
      <use xlink:href="#DejaVuSerif-29" x="807.324219"/>
     </g>
    </g>
   </g>
   <g id="matplotlib.axis_2">
    <g id="ytick_1">
     <g id="line2d_19">
      <path d="M 76.845704 489.316765 
L 869.11416 489.316765 
" clip-path="url(#p96db6b5e15)" style="fill: none; stroke: #b0b0b0; stroke-opacity: 0.15; stroke-width: 0.5; stroke-linecap: square"/>
     </g>
     <g id="line2d_20">
      <defs>
       <path id="mce0cc897db" d="M 0 0 
L 4 0 
" style="stroke: #000000; stroke-width: 0.8"/>
      </defs>
      <g>
       <use xlink:href="#mce0cc897db" x="76.845704" y="489.316765" style="stroke: #000000; stroke-width: 0.8"/>
      </g>
     </g>
     <g id="line2d_21">
      <defs>
       <path id="m37b8b649e2" d="M 0 0 
L -4 0 
" style="stroke: #000000; stroke-width: 0.8"/>
      </defs>
      <g>
       <use xlink:href="#m37b8b649e2" x="869.11416" y="489.316765" style="stroke: #000000; stroke-width: 0.8"/>
      </g>
     </g>
     <g id="text_11">
      <!-- 0.0 -->
      <g transform="translate(57.442579 493.115983) scale(0.1 -0.1)">
       <defs>
        <path id="DejaVuSerif-2e" d="M 603 325 
Q 603 500 722 622 
Q 841 744 1019 744 
Q 1191 744 1312 622 
Q 1434 500 1434 325 
Q 1434 153 1312 31 
Q 1191 -91 1019 -91 
Q 841 -91 722 29 
Q 603 150 603 325 
z
" transform="scale(0.015625)"/>
       </defs>
       <use xlink:href="#DejaVuSerif-30"/>
       <use xlink:href="#DejaVuSerif-2e" x="63.623047"/>
       <use xlink:href="#DejaVuSerif-30" x="95.410156"/>
      </g>
     </g>
    </g>
    <g id="ytick_2">
     <g id="line2d_22">
      <path d="M 76.845704 427.479706 
L 869.11416 427.479706 
" clip-path="url(#p96db6b5e15)" style="fill: none; stroke: #b0b0b0; stroke-opacity: 0.15; stroke-width: 0.5; stroke-linecap: square"/>
     </g>
     <g id="line2d_23">
      <g>
       <use xlink:href="#mce0cc897db" x="76.845704" y="427.479706" style="stroke: #000000; stroke-width: 0.8"/>
      </g>
     </g>
     <g id="line2d_24">
      <g>
       <use xlink:href="#m37b8b649e2" x="869.11416" y="427.479706" style="stroke: #000000; stroke-width: 0.8"/>
      </g>
     </g>
     <g id="text_12">
      <!-- 0.1 -->
      <g transform="translate(57.442579 431.278925) scale(0.1 -0.1)">
       <use xlink:href="#DejaVuSerif-30"/>
       <use xlink:href="#DejaVuSerif-2e" x="63.623047"/>
       <use xlink:href="#DejaVuSerif-31" x="95.410156"/>
      </g>
     </g>
    </g>
    <g id="ytick_3">
     <g id="line2d_25">
      <path d="M 76.845704 365.642647 
L 869.11416 365.642647 
" clip-path="url(#p96db6b5e15)" style="fill: none; stroke: #b0b0b0; stroke-opacity: 0.15; stroke-width: 0.5; stroke-linecap: square"/>
     </g>
     <g id="line2d_26">
      <g>
       <use xlink:href="#mce0cc897db" x="76.845704" y="365.642647" style="stroke: #000000; stroke-width: 0.8"/>
      </g>
     </g>
     <g id="line2d_27">
      <g>
       <use xlink:href="#m37b8b649e2" x="869.11416" y="365.642647" style="stroke: #000000; stroke-width: 0.8"/>
      </g>
     </g>
     <g id="text_13">
      <!-- 0.2 -->
      <g transform="translate(57.442579 369.441866) scale(0.1 -0.1)">
       <use xlink:href="#DejaVuSerif-30"/>
       <use xlink:href="#DejaVuSerif-2e" x="63.623047"/>
       <use xlink:href="#DejaVuSerif-32" x="95.410156"/>
      </g>
     </g>
    </g>
    <g id="ytick_4">
     <g id="line2d_28">
      <path d="M 76.845704 303.805588 
L 869.11416 303.805588 
" clip-path="url(#p96db6b5e15)" style="fill: none; stroke: #b0b0b0; stroke-opacity: 0.15; stroke-width: 0.5; stroke-linecap: square"/>
     </g>
     <g id="line2d_29">
      <g>
       <use xlink:href="#mce0cc897db" x="76.845704" y="303.805588" style="stroke: #000000; stroke-width: 0.8"/>
      </g>
     </g>
     <g id="line2d_30">
      <g>
       <use xlink:href="#m37b8b649e2" x="869.11416" y="303.805588" style="stroke: #000000; stroke-width: 0.8"/>
      </g>
     </g>
     <g id="text_14">
      <!-- 0.3 -->
      <g transform="translate(57.442579 307.604807) scale(0.1 -0.1)">
       <defs>
        <path id="DejaVuSerif-33" d="M 622 4469 
Q 988 4606 1323 4678 
Q 1659 4750 1953 4750 
Q 2638 4750 3022 4454 
Q 3406 4159 3406 3634 
Q 3406 3213 3140 2930 
Q 2875 2647 2388 2547 
Q 2963 2466 3280 2130 
Q 3597 1794 3597 1259 
Q 3597 606 3158 257 
Q 2719 -91 1894 -91 
Q 1528 -91 1179 -12 
Q 831 66 488 225 
L 488 1131 
L 838 1131 
Q 869 681 1141 450 
Q 1413 219 1906 219 
Q 2384 219 2661 495 
Q 2938 772 2938 1253 
Q 2938 1803 2653 2086 
Q 2369 2369 1819 2369 
L 1522 2369 
L 1522 2688 
L 1678 2688 
Q 2225 2688 2498 2914 
Q 2772 3141 2772 3597 
Q 2772 4006 2547 4223 
Q 2322 4441 1900 4441 
Q 1478 4441 1245 4241 
Q 1013 4041 972 3647 
L 622 3647 
L 622 4469 
z
" transform="scale(0.015625)"/>
       </defs>
       <use xlink:href="#DejaVuSerif-30"/>
       <use xlink:href="#DejaVuSerif-2e" x="63.623047"/>
       <use xlink:href="#DejaVuSerif-33" x="95.410156"/>
      </g>
     </g>
    </g>
    <g id="ytick_5">
     <g id="line2d_31">
      <path d="M 76.845704 241.968529 
L 869.11416 241.968529 
" clip-path="url(#p96db6b5e15)" style="fill: none; stroke: #b0b0b0; stroke-opacity: 0.15; stroke-width: 0.5; stroke-linecap: square"/>
     </g>
     <g id="line2d_32">
      <g>
       <use xlink:href="#mce0cc897db" x="76.845704" y="241.968529" style="stroke: #000000; stroke-width: 0.8"/>
      </g>
     </g>
     <g id="line2d_33">
      <g>
       <use xlink:href="#m37b8b649e2" x="869.11416" y="241.968529" style="stroke: #000000; stroke-width: 0.8"/>
      </g>
     </g>
     <g id="text_15">
      <!-- 0.4 -->
      <g transform="translate(57.442579 245.767748) scale(0.1 -0.1)">
       <defs>
        <path id="DejaVuSerif-34" d="M 2234 1581 
L 2234 4063 
L 641 1581 
L 2234 1581 
z
M 3609 0 
L 1484 0 
L 1484 331 
L 2234 331 
L 2234 1247 
L 197 1247 
L 197 1588 
L 2241 4750 
L 2859 4750 
L 2859 1581 
L 3750 1581 
L 3750 1247 
L 2859 1247 
L 2859 331 
L 3609 331 
L 3609 0 
z
" transform="scale(0.015625)"/>
       </defs>
       <use xlink:href="#DejaVuSerif-30"/>
       <use xlink:href="#DejaVuSerif-2e" x="63.623047"/>
       <use xlink:href="#DejaVuSerif-34" x="95.410156"/>
      </g>
     </g>
    </g>
    <g id="ytick_6">
     <g id="line2d_34">
      <path d="M 76.845704 180.131471 
L 869.11416 180.131471 
" clip-path="url(#p96db6b5e15)" style="fill: none; stroke: #b0b0b0; stroke-opacity: 0.15; stroke-width: 0.5; stroke-linecap: square"/>
     </g>
     <g id="line2d_35">
      <g>
       <use xlink:href="#mce0cc897db" x="76.845704" y="180.131471" style="stroke: #000000; stroke-width: 0.8"/>
      </g>
     </g>
     <g id="line2d_36">
      <g>
       <use xlink:href="#m37b8b649e2" x="869.11416" y="180.131471" style="stroke: #000000; stroke-width: 0.8"/>
      </g>
     </g>
     <g id="text_16">
      <!-- 0.5 -->
      <g transform="translate(57.442579 183.930689) scale(0.1 -0.1)">
       <use xlink:href="#DejaVuSerif-30"/>
       <use xlink:href="#DejaVuSerif-2e" x="63.623047"/>
       <use xlink:href="#DejaVuSerif-35" x="95.410156"/>
      </g>
     </g>
    </g>
    <g id="ytick_7">
     <g id="line2d_37">
      <path d="M 76.845704 118.294412 
L 869.11416 118.294412 
" clip-path="url(#p96db6b5e15)" style="fill: none; stroke: #b0b0b0; stroke-opacity: 0.15; stroke-width: 0.5; stroke-linecap: square"/>
     </g>
     <g id="line2d_38">
      <g>
       <use xlink:href="#mce0cc897db" x="76.845704" y="118.294412" style="stroke: #000000; stroke-width: 0.8"/>
      </g>
     </g>
     <g id="line2d_39">
      <g>
       <use xlink:href="#m37b8b649e2" x="869.11416" y="118.294412" style="stroke: #000000; stroke-width: 0.8"/>
      </g>
     </g>
     <g id="text_17">
      <!-- 0.6 -->
      <g transform="translate(57.442579 122.093631) scale(0.1 -0.1)">
       <defs>
        <path id="DejaVuSerif-36" d="M 2094 219 
Q 2534 219 2771 542 
Q 3009 866 3009 1472 
Q 3009 2078 2771 2401 
Q 2534 2725 2094 2725 
Q 1647 2725 1412 2412 
Q 1178 2100 1178 1509 
Q 1178 888 1415 553 
Q 1653 219 2094 219 
z
M 1075 2569 
Q 1288 2803 1556 2918 
Q 1825 3034 2163 3034 
Q 2859 3034 3264 2615 
Q 3669 2197 3669 1472 
Q 3669 763 3233 336 
Q 2797 -91 2069 -91 
Q 1278 -91 853 498 
Q 428 1088 428 2181 
Q 428 3406 931 4078 
Q 1434 4750 2350 4750 
Q 2597 4750 2869 4703 
Q 3141 4656 3425 4563 
L 3425 3794 
L 3072 3794 
Q 3034 4109 2831 4275 
Q 2628 4441 2284 4441 
Q 1678 4441 1381 3981 
Q 1084 3522 1075 2569 
z
" transform="scale(0.015625)"/>
       </defs>
       <use xlink:href="#DejaVuSerif-30"/>
       <use xlink:href="#DejaVuSerif-2e" x="63.623047"/>
       <use xlink:href="#DejaVuSerif-36" x="95.410156"/>
      </g>
     </g>
    </g>
    <g id="ytick_8">
     <g id="line2d_40">
      <path d="M 76.845704 56.457353 
L 869.11416 56.457353 
" clip-path="url(#p96db6b5e15)" style="fill: none; stroke: #b0b0b0; stroke-opacity: 0.15; stroke-width: 0.5; stroke-linecap: square"/>
     </g>
     <g id="line2d_41">
      <g>
       <use xlink:href="#mce0cc897db" x="76.845704" y="56.457353" style="stroke: #000000; stroke-width: 0.8"/>
      </g>
     </g>
     <g id="line2d_42">
      <g>
       <use xlink:href="#m37b8b649e2" x="869.11416" y="56.457353" style="stroke: #000000; stroke-width: 0.8"/>
      </g>
     </g>
     <g id="text_18">
      <!-- 0.7 -->
      <g transform="translate(57.442579 60.256572) scale(0.1 -0.1)">
       <use xlink:href="#DejaVuSerif-30"/>
       <use xlink:href="#DejaVuSerif-2e" x="63.623047"/>
       <use xlink:href="#DejaVuSerif-37" x="95.410156"/>
      </g>
     </g>
    </g>
    <g id="text_19">
     <!-- Goodness $S(t)=1-D^{*}(t)$ -->
     <g transform="translate(51.362892 313.877794) rotate(-90) scale(0.1 -0.1)">
      <defs>
       <path id="DejaVuSerif-47" d="M 4097 3272 
Q 3988 3856 3641 4136 
Q 3294 4416 2675 4416 
Q 1869 4416 1472 3897 
Q 1075 3378 1075 2328 
Q 1075 1300 1484 772 
Q 1894 244 2688 244 
Q 3041 244 3362 331 
Q 3684 419 3975 594 
L 3975 1797 
L 3097 1797 
L 3097 2131 
L 4609 2131 
L 4609 391 
Q 4194 150 3714 29 
Q 3234 -91 2688 -91 
Q 1631 -91 995 570 
Q 359 1231 359 2328 
Q 359 3434 996 4092 
Q 1634 4750 2713 4750 
Q 3113 4750 3539 4658 
Q 3966 4566 4447 4378 
L 4447 3272 
L 4097 3272 
z
" transform="scale(0.015625)"/>
       <path id="DejaVuSerif-64" d="M 3359 331 
L 3909 331 
L 3909 0 
L 2784 0 
L 2784 519 
Q 2616 206 2355 57 
Q 2094 -91 1709 -91 
Q 1097 -91 708 395 
Q 319 881 319 1663 
Q 319 2444 706 2928 
Q 1094 3413 1709 3413 
Q 2094 3413 2355 3264 
Q 2616 3116 2784 2803 
L 2784 4531 
L 2241 4531 
L 2241 4863 
L 3359 4863 
L 3359 331 
z
M 2784 1497 
L 2784 1825 
Q 2784 2422 2554 2737 
Q 2325 3053 1888 3053 
Q 1444 3053 1217 2703 
Q 991 2353 991 1663 
Q 991 975 1217 622 
Q 1444 269 1888 269 
Q 2325 269 2554 583 
Q 2784 897 2784 1497 
z
" transform="scale(0.015625)"/>
       <path id="DejaVuSerif-6e" d="M 263 0 
L 263 331 
L 781 331 
L 781 2988 
L 231 2988 
L 231 3322 
L 1356 3322 
L 1356 2731 
Q 1516 3069 1770 3241 
Q 2025 3413 2363 3413 
Q 2913 3413 3172 3097 
Q 3431 2781 3431 2113 
L 3431 331 
L 3944 331 
L 3944 0 
L 2356 0 
L 2356 331 
L 2853 331 
L 2853 1931 
Q 2853 2541 2703 2767 
Q 2553 2994 2175 2994 
Q 1775 2994 1565 2701 
Q 1356 2409 1356 1850 
L 1356 331 
L 1856 331 
L 1856 0 
L 263 0 
z
" transform="scale(0.015625)"/>
       <path id="STIXGeneral-Italic-53" d="M 3251 4269 
L 2995 2989 
L 2880 3008 
Q 2880 3539 2720 3795 
Q 2560 4051 2118 4051 
Q 1786 4051 1594 3881 
Q 1402 3712 1402 3411 
Q 1402 3168 1504 3005 
Q 1606 2842 2035 2413 
Q 2464 1978 2611 1715 
Q 2758 1453 2758 1133 
Q 2758 589 2390 237 
Q 2022 -115 1466 -115 
Q 1222 -115 800 32 
Q 595 109 499 109 
Q 288 109 224 -96 
L 109 -96 
L 326 1338 
L 454 1325 
Q 442 1267 442 1178 
Q 442 710 701 409 
Q 960 109 1363 109 
Q 1734 109 1968 336 
Q 2202 563 2202 928 
Q 2202 1139 2118 1308 
Q 2035 1478 1818 1715 
L 1568 1984 
Q 1549 2003 1459 2102 
Q 1370 2202 1318 2253 
Q 1030 2560 934 2755 
Q 838 2950 838 3213 
Q 838 3699 1168 3980 
Q 1498 4262 1978 4262 
Q 2310 4262 2522 4173 
Q 2707 4102 2816 4102 
Q 2925 4102 2982 4134 
Q 3040 4166 3104 4269 
L 3251 4269 
z
" transform="scale(0.015625)"/>
       <path id="STIXGeneral-Regular-28" d="M 1946 -1030 
L 1869 -1133 
Q 1126 -710 716 32 
Q 307 774 307 1613 
Q 307 3386 1888 4326 
L 1946 4224 
Q 1293 3667 1075 3126 
Q 858 2586 858 1632 
Q 858 685 1082 96 
Q 1306 -493 1946 -1030 
z
" transform="scale(0.015625)"/>
       <path id="STIXGeneral-Italic-74" d="M 1894 2739 
L 1862 2534 
L 1325 2534 
L 768 435 
Q 755 384 755 346 
Q 755 243 851 243 
Q 928 243 1030 342 
Q 1133 442 1370 749 
L 1453 704 
Q 1158 256 969 93 
Q 781 -70 538 -70 
Q 243 -70 243 166 
Q 243 230 346 640 
L 845 2534 
L 365 2534 
L 358 2573 
Q 358 2688 570 2733 
Q 730 2771 992 2979 
Q 1254 3187 1421 3437 
Q 1459 3494 1510 3494 
Q 1568 3494 1568 3443 
Q 1568 3411 1562 3398 
L 1382 2739 
L 1894 2739 
z
" transform="scale(0.015625)"/>
       <path id="STIXGeneral-Regular-29" d="M 186 4224 
L 262 4326 
Q 992 3891 1408 3148 
Q 1824 2406 1824 1581 
Q 1824 -166 243 -1133 
L 186 -1030 
Q 845 -486 1059 54 
Q 1274 595 1274 1562 
Q 1274 2534 1059 3120 
Q 845 3706 186 4224 
z
" transform="scale(0.015625)"/>
       <path id="STIXGeneral-Regular-3d" d="M 4077 2048 
L 307 2048 
L 307 2470 
L 4077 2470 
L 4077 2048 
z
M 4077 768 
L 307 768 
L 307 1190 
L 4077 1190 
L 4077 768 
z
" transform="scale(0.015625)"/>
       <path id="STIXGeneral-Regular-31" d="M 2522 0 
L 755 0 
L 755 96 
Q 1107 115 1235 227 
Q 1363 339 1363 608 
L 1363 3482 
Q 1363 3795 1171 3795 
Q 1082 3795 883 3718 
L 710 3654 
L 710 3744 
L 1856 4326 
L 1914 4307 
L 1914 486 
Q 1914 275 2042 185 
Q 2170 96 2522 96 
L 2522 0 
z
" transform="scale(0.015625)"/>
       <path id="STIXGeneral-Regular-2212" d="M 3974 1408 
L 410 1408 
L 410 1830 
L 3974 1830 
L 3974 1408 
z
" transform="scale(0.015625)"/>
       <path id="STIXGeneral-Italic-44" d="M 838 4179 
L 2611 4179 
Q 3469 4179 3974 3731 
Q 4480 3283 4480 2458 
Q 4480 1325 3456 531 
Q 2778 0 1594 0 
L -51 0 
L -51 102 
Q 224 154 310 230 
Q 397 307 474 589 
L 1254 3437 
Q 1325 3686 1325 3814 
Q 1325 3949 1222 4009 
Q 1120 4070 838 4077 
L 838 4179 
z
M 1984 3738 
L 1229 1037 
Q 1088 525 1088 429 
Q 1088 192 1523 192 
Q 2470 192 3066 768 
Q 3398 1088 3584 1597 
Q 3770 2106 3770 2611 
Q 3770 3386 3270 3763 
Q 2970 3987 2432 3987 
Q 2227 3987 2128 3939 
Q 2029 3891 1984 3738 
z
" transform="scale(0.015625)"/>
       <path id="STIXGeneral-Regular-2a" d="M 1715 3014 
L 1773 2976 
Q 2010 2822 2387 2758 
Q 2605 2726 2688 2665 
Q 2771 2605 2771 2483 
Q 2771 2374 2707 2304 
Q 2643 2234 2541 2234 
Q 2381 2234 2157 2515 
Q 2010 2694 1715 2886 
L 1664 2918 
L 1664 2861 
Q 1664 2502 1792 2157 
Q 1850 1997 1850 1946 
Q 1850 1850 1770 1773 
Q 1690 1696 1594 1696 
Q 1504 1696 1433 1766 
Q 1363 1837 1363 1926 
Q 1363 2016 1440 2227 
Q 1542 2502 1542 2861 
L 1542 2918 
Q 1286 2758 1210 2688 
Q 1133 2611 947 2400 
Q 806 2240 672 2240 
Q 563 2240 499 2304 
Q 435 2368 435 2470 
Q 435 2592 528 2656 
Q 621 2720 838 2758 
Q 1062 2803 1180 2848 
Q 1299 2893 1498 3014 
Q 1222 3181 877 3251 
Q 640 3302 544 3366 
Q 448 3430 448 3546 
Q 448 3648 505 3715 
Q 563 3782 659 3782 
Q 787 3782 973 3578 
Q 1242 3277 1542 3110 
L 1542 3194 
Q 1542 3456 1446 3776 
Q 1376 3987 1376 4109 
Q 1376 4198 1443 4262 
Q 1510 4326 1606 4326 
Q 1702 4326 1772 4259 
Q 1843 4192 1843 4096 
Q 1843 3994 1773 3795 
Q 1664 3507 1664 3264 
L 1664 3110 
Q 1882 3238 2035 3379 
Q 2067 3411 2153 3504 
Q 2240 3597 2291 3648 
Q 2342 3699 2409 3747 
Q 2477 3795 2528 3795 
Q 2637 3795 2701 3728 
Q 2765 3661 2765 3552 
Q 2765 3424 2691 3363 
Q 2618 3302 2432 3277 
Q 2074 3219 1715 3014 
z
" transform="scale(0.015625)"/>
      </defs>
      <use xlink:href="#DejaVuSerif-47" transform="translate(0 0.409375)"/>
      <use xlink:href="#DejaVuSerif-6f" transform="translate(79.882812 0.409375)"/>
      <use xlink:href="#DejaVuSerif-6f" transform="translate(140.087891 0.409375)"/>
      <use xlink:href="#DejaVuSerif-64" transform="translate(200.292969 0.409375)"/>
      <use xlink:href="#DejaVuSerif-6e" transform="translate(264.306641 0.409375)"/>
      <use xlink:href="#DejaVuSerif-65" transform="translate(328.710938 0.409375)"/>
      <use xlink:href="#DejaVuSerif-73" transform="translate(387.890625 0.409375)"/>
      <use xlink:href="#DejaVuSerif-73" transform="translate(439.208984 0.409375)"/>
      <use xlink:href="#DejaVuSerif-20" transform="translate(490.527344 0.409375)"/>
      <use xlink:href="#STIXGeneral-Italic-53" transform="translate(522.314453 0.409375)"/>
      <use xlink:href="#STIXGeneral-Regular-28" transform="translate(572.314438 0.409375)"/>
      <use xlink:href="#STIXGeneral-Italic-74" transform="translate(605.614426 0.409375)"/>
      <use xlink:href="#STIXGeneral-Regular-29" transform="translate(633.414413 0.409375)"/>
      <use xlink:href="#STIXGeneral-Regular-3d" transform="translate(681.154398 0.409375)"/>
      <use xlink:href="#STIXGeneral-Regular-31" transform="translate(764.094379 0.409375)"/>
      <use xlink:href="#STIXGeneral-Regular-2212" transform="translate(828.53436 0.409375)"/>
      <use xlink:href="#STIXGeneral-Italic-44" transform="translate(911.474341 0.409375)"/>
      <use xlink:href="#STIXGeneral-Regular-2a" transform="translate(994.300104 35.684375) scale(0.7)"/>
      <use xlink:href="#STIXGeneral-Regular-28" transform="translate(1033.709468 0.409375)"/>
      <use xlink:href="#STIXGeneral-Italic-74" transform="translate(1067.009456 0.409375)"/>
      <use xlink:href="#STIXGeneral-Regular-29" transform="translate(1094.809444 0.409375)"/>
     </g>
    </g>
   </g>
   <g id="line2d_43">
    <path d="M 77.241838 453.786427 
L 81.221096 452.497743 
L 93.15887 448.169149 
L 97.138128 446.056795 
L 101.117386 444.433572 
L 109.075901 440.774674 
L 113.055159 438.429812 
L 117.034417 436.446079 
L 121.013675 434.900153 
L 124.992933 433.122337 
L 128.972191 430.906716 
L 132.951449 428.38129 
L 136.930707 426.088372 
L 140.909965 423.073815 
L 144.889222 419.414917 
L 152.847738 411.221506 
L 156.826996 405.785411 
L 160.806254 399.498437 
L 164.785512 390.789924 
L 168.76477 381.694311 
L 172.744028 369.893945 
L 176.723286 355.388208 
L 180.702543 337.764646 
L 184.681802 312.308184 
L 188.66106 272.217363 
L 192.640317 208.834378 
L 196.619575 181.909286 
L 200.598833 180.286063 
L 204.578091 180.157442 
L 228.453638 180.054174 
L 252.329186 180.00285 
L 256.308444 180.00285 
L 260.287702 180.794982 
L 264.266959 184.000615 
L 268.246217 185.416066 
L 272.225475 186.6021 
L 276.204733 190.077962 
L 280.183991 196.688961 
L 284.163249 200.459167 
L 288.142507 203.346339 
L 292.121765 206.762218 
L 296.101023 209.844177 
L 300.08028 213.70281 
L 304.059538 218.570005 
L 308.038796 221.756468 
L 312.018054 223.382783 
L 315.997312 223.869441 
L 319.97657 224.036401 
L 323.955828 224.647969 
L 327.935086 227.350867 
L 331.914344 233.405334 
L 335.893601 237.728981 
L 343.852118 247.008868 
L 347.831375 248.625907 
L 351.810633 249.364242 
L 355.789891 249.77855 
L 359.769149 251.134637 
L 363.748407 254.126932 
L 367.727665 256.464991 
L 371.706923 256.901561 
L 375.686181 257.009776 
L 379.665439 258.063479 
L 383.644696 261.333423 
L 391.603212 265.626151 
L 395.58247 268.018627 
L 399.561728 270.048119 
L 403.540986 271.628056 
L 407.520244 272.566743 
L 411.499502 273.117711 
L 415.47876 273.421331 
L 419.458017 274.311166 
L 431.395791 277.399927 
L 435.375049 278.203809 
L 439.354307 279.184545 
L 443.333565 280.405827 
L 447.312823 281.36492 
L 451.292081 281.708734 
L 455.271338 281.89239 
L 459.250597 282.447068 
L 463.229854 283.620735 
L 471.18837 288.047032 
L 475.167628 289.916366 
L 483.126144 292.807867 
L 487.105402 294.291957 
L 491.08466 297.483367 
L 495.063918 301.51638 
L 499.043176 305.290914 
L 503.022433 309.883553 
L 507.001691 313.224609 
L 510.980949 314.138561 
L 514.960207 314.297482 
L 522.918723 314.111352 
L 526.897981 314.023544 
L 530.877239 314.92451 
L 534.856497 317.249583 
L 538.835754 320.097798 
L 542.815012 321.968988 
L 546.79427 322.420398 
L 558.732044 321.515104 
L 562.711302 321.710509 
L 566.69056 322.711032 
L 570.669818 324.202542 
L 574.649075 324.856778 
L 578.628333 324.405368 
L 586.586849 323.848216 
L 590.566107 324.077013 
L 594.545365 324.828951 
L 598.524623 325.132571 
L 602.503881 325.786189 
L 606.483139 325.615519 
L 610.462397 325.180186 
L 614.441655 324.892025 
L 618.420912 324.937166 
L 622.40017 325.777532 
L 626.379428 327.608527 
L 630.358686 329.949678 
L 634.337944 333.452129 
L 638.317202 336.747426 
L 642.29646 338.725594 
L 646.275718 340.564009 
L 650.254976 342.025219 
L 654.234234 343.181572 
L 658.213491 343.480245 
L 662.192749 342.230518 
L 666.172007 340.184948 
L 674.130523 334.188609 
L 678.109781 331.299581 
L 682.089039 328.922565 
L 686.068297 325.922849 
L 690.047555 322.297342 
L 694.026812 318.384912 
L 698.00607 314.95852 
L 701.985328 311.333013 
L 709.943844 303.273171 
L 713.923102 298.416489 
L 717.90236 293.24691 
L 721.881618 288.405687 
L 729.840133 277.070336 
L 733.819392 269.977625 
L 737.798649 262.632001 
L 741.777907 252.975526 
L 745.757165 242.5869 
L 749.736423 231.020897 
L 753.715681 217.198459 
L 757.694939 199.637352 
L 761.674197 180.732527 
L 765.653455 159.467381 
L 769.632713 134.045547 
L 777.591228 78.692723 
L 781.570486 58.888168 
L 785.549744 60.364837 
L 789.529002 80.805695 
L 793.50826 110.888187 
L 797.487518 143.681616 
L 801.466776 178.145883 
L 805.446034 209.356283 
L 809.425292 238.670141 
L 813.404549 265.658925 
L 821.363065 307.025444 
L 825.342323 324.215528 
L 829.321581 339.545553 
L 833.300839 352.627801 
L 837.280097 363.694161 
L 841.259355 374.058671 
L 845.238613 381.698639 
L 849.21787 388.910077 
L 853.197128 395.115426 
L 857.176386 401.684995 
L 865.134902 412.809482 
L 869.11416 417.070674 
L 869.11416 417.070674 
" clip-path="url(#p96db6b5e15)" style="fill: none; stroke-dasharray: 4.44,1.92; stroke-dashoffset: 0; stroke: #404040; stroke-width: 1.2"/>
   </g>
   <g id="patch_5">
    <path d="M 76.845704 489.316765 
L 76.845704 25.538824 
" style="fill: none; stroke: #000000; stroke-width: 0.8; stroke-linejoin: miter; stroke-linecap: square"/>
   </g>
   <g id="patch_6">
    <path d="M 869.11416 489.316765 
L 869.11416 25.538824 
" style="fill: none; stroke: #000000; stroke-width: 0.8; stroke-linejoin: miter; stroke-linecap: square"/>
   </g>
   <g id="patch_7">
    <path d="M 76.845704 489.316765 
L 869.11416 489.316765 
" style="fill: none; stroke: #000000; stroke-width: 0.8; stroke-linejoin: miter; stroke-linecap: square"/>
   </g>
   <g id="patch_8">
    <path d="M 76.845704 25.538824 
L 869.11416 25.538824 
" style="fill: none; stroke: #000000; stroke-width: 0.8; stroke-linejoin: miter; stroke-linecap: square"/>
   </g>
   <g id="line2d_44">
    <path d="M 77.241838 453.786427 
L 81.221096 452.497743 
L 93.15887 448.169149 
L 97.138128 446.056795 
L 101.117386 444.433572 
L 109.075901 440.774674 
L 113.055159 438.429812 
L 117.034417 436.446079 
L 121.013675 434.900153 
L 124.992933 433.122337 
L 128.972191 430.906716 
L 132.951449 428.38129 
L 136.930707 426.088372 
L 140.909965 423.073815 
L 144.889222 419.414917 
L 152.847738 411.221506 
L 156.826996 405.785411 
L 160.806254 399.498437 
L 164.785512 390.789924 
L 168.76477 381.694311 
L 172.744028 369.893945 
L 176.723286 355.388208 
L 180.702543 337.764646 
L 184.681802 312.308184 
L 188.66106 272.217363 
L 192.640317 208.834378 
L 196.619575 181.909286 
L 200.598833 180.286063 
L 204.578091 180.157442 
L 228.453638 180.054174 
L 252.329186 180.00285 
L 256.308444 180.00285 
L 260.287702 181.574129 
L 264.266959 187.912428 
L 268.246217 190.669742 
L 272.225475 192.936689 
L 276.204733 199.506876 
L 280.183991 211.668371 
L 284.163249 218.393151 
L 288.142507 223.468737 
L 292.121765 229.317904 
L 296.101023 234.496758 
L 300.08028 240.835056 
L 304.059538 248.641985 
L 308.038796 253.640274 
L 312.018054 256.165081 
L 315.997312 256.938045 
L 319.97657 257.195905 
L 323.955828 258.123461 
L 327.935086 262.194195 
L 331.914344 271.135215 
L 339.87286 283.78584 
L 343.852118 290.227407 
L 347.831375 292.417057 
L 351.810633 293.421909 
L 355.789891 293.988955 
L 359.769149 295.792742 
L 363.748407 299.708883 
L 367.727665 302.749411 
L 371.706923 303.315839 
L 375.686181 303.470431 
L 379.665439 304.81044 
L 383.644696 308.933117 
L 391.603212 314.291917 
L 395.58247 317.221138 
L 399.561728 319.669267 
L 403.540986 321.593637 
L 407.520244 322.72711 
L 411.499502 323.397424 
L 415.47876 323.776485 
L 419.458017 324.858633 
L 431.395791 328.519387 
L 435.375049 329.472296 
L 439.354307 330.607006 
L 443.333565 332.049665 
L 447.312823 333.159022 
L 451.292081 333.583842 
L 455.271338 333.790378 
L 459.250597 334.408749 
L 463.229854 335.743192 
L 471.18837 340.687684 
L 475.167628 342.752423 
L 483.126144 345.945689 
L 487.105402 347.544177 
L 491.08466 350.923572 
L 495.063918 355.128492 
L 499.043176 359.021753 
L 503.022433 363.715186 
L 507.001691 367.06861 
L 510.980949 368.025229 
L 514.960207 368.231146 
L 522.918723 368.204556 
L 526.897981 368.255881 
L 530.877239 369.185292 
L 534.856497 371.454094 
L 538.835754 374.18791 
L 542.815012 376.094347 
L 546.79427 376.610686 
L 558.732044 376.064047 
L 562.711302 376.372614 
L 566.69056 377.431882 
L 570.669818 378.880725 
L 574.649075 379.604837 
L 582.607591 379.19733 
L 586.586849 379.123744 
L 590.566107 379.439113 
L 594.545365 380.303595 
L 598.524623 380.809422 
L 602.503881 381.621343 
L 606.483139 381.676378 
L 610.462397 381.532916 
L 614.441655 381.510655 
L 618.420912 381.842101 
L 622.40017 382.773367 
L 626.379428 384.611783 
L 630.358686 386.880585 
L 634.337944 390.143727 
L 638.317202 393.255986 
L 642.29646 395.222404 
L 646.275718 397.036703 
L 650.254976 398.586959 
L 654.234234 399.86142 
L 658.213491 400.437742 
L 662.192749 399.800202 
L 666.172007 398.581393 
L 678.109781 393.18982 
L 682.089039 391.743451 
L 686.068297 389.91864 
L 690.047555 387.71353 
L 694.026812 385.333422 
L 701.985328 381.043167 
L 709.943844 376.173498 
L 721.881618 367.424173 
L 725.860876 364.078788 
L 729.840133 360.946741 
L 733.819392 356.918056 
L 737.798649 352.727359 
L 741.777907 347.15213 
L 745.757165 341.01542 
L 749.736423 334.239933 
L 753.715681 325.978502 
L 757.694939 315.484135 
L 761.674197 304.166098 
L 765.653455 291.407258 
L 769.632713 276.153911 
L 777.591228 242.942463 
L 781.570486 231.059235 
L 785.549744 231.945979 
L 789.529002 244.210123 
L 793.50826 262.288187 
L 797.487518 281.995658 
L 801.466776 302.794552 
L 805.446034 321.606004 
L 809.425292 339.35695 
L 813.404549 355.707287 
L 821.363065 380.981329 
L 825.342323 391.64513 
L 829.321581 401.318301 
L 833.300839 409.712682 
L 837.280097 417.104066 
L 841.259355 424.151635 
L 845.238613 429.857341 
L 849.21787 435.21614 
L 853.197128 439.998618 
L 857.176386 444.588165 
L 861.155644 448.500596 
L 865.134902 452.117445 
L 869.11416 454.861774 
L 869.11416 454.861774 
" clip-path="url(#p96db6b5e15)" style="fill: none; stroke: #d62728; stroke-width: 1.6; stroke-linecap: square"/>
   </g>
   <g id="text_20">
    <!-- true 300 Ma -->
    <g transform="translate(194.022222 85.056882) rotate(-90) scale(0.08 -0.08)">
     <defs>
      <path id="DejaVuSerif-74" d="M 691 2988 
L 184 2988 
L 184 3322 
L 691 3322 
L 691 4353 
L 1269 4353 
L 1269 3322 
L 2350 3322 
L 2350 2988 
L 1269 2988 
L 1269 878 
Q 1269 456 1350 337 
Q 1431 219 1650 219 
Q 1875 219 1978 351 
Q 2081 484 2088 781 
L 2522 781 
Q 2497 328 2275 118 
Q 2053 -91 1600 -91 
Q 1103 -91 897 129 
Q 691 350 691 878 
L 691 2988 
z
" transform="scale(0.015625)"/>
      <path id="DejaVuSerif-72" d="M 3059 3328 
L 3059 2497 
L 2728 2497 
Q 2713 2744 2591 2866 
Q 2469 2988 2234 2988 
Q 1809 2988 1582 2694 
Q 1356 2400 1356 1850 
L 1356 331 
L 2022 331 
L 2022 0 
L 263 0 
L 263 331 
L 781 331 
L 781 2994 
L 231 2994 
L 231 3322 
L 1356 3322 
L 1356 2731 
Q 1525 3078 1790 3245 
Q 2056 3413 2438 3413 
Q 2578 3413 2733 3391 
Q 2888 3369 3059 3328 
z
" transform="scale(0.015625)"/>
      <path id="DejaVuSerif-75" d="M 2266 3322 
L 3341 3322 
L 3341 331 
L 3884 331 
L 3884 0 
L 2766 0 
L 2766 588 
Q 2606 256 2353 82 
Q 2100 -91 1766 -91 
Q 1213 -91 952 223 
Q 691 538 691 1209 
L 691 2988 
L 172 2988 
L 172 3322 
L 1269 3322 
L 1269 1388 
Q 1269 781 1417 556 
Q 1566 331 1947 331 
Q 2347 331 2556 625 
Q 2766 919 2766 1478 
L 2766 2988 
L 2266 2988 
L 2266 3322 
z
" transform="scale(0.015625)"/>
     </defs>
     <use xlink:href="#DejaVuSerif-74"/>
     <use xlink:href="#DejaVuSerif-72" x="40.185547"/>
     <use xlink:href="#DejaVuSerif-75" x="87.988281"/>
     <use xlink:href="#DejaVuSerif-65" x="152.392578"/>
     <use xlink:href="#DejaVuSerif-20" x="211.572266"/>
     <use xlink:href="#DejaVuSerif-33" x="243.359375"/>
     <use xlink:href="#DejaVuSerif-30" x="306.982422"/>
     <use xlink:href="#DejaVuSerif-30" x="370.605469"/>
     <use xlink:href="#DejaVuSerif-20" x="434.228516"/>
     <use xlink:href="#DejaVuSerif-4d" x="466.015625"/>
     <use xlink:href="#DejaVuSerif-61" x="568.408203"/>
    </g>
   </g>
   <g id="text_21">
    <!-- true 1800 Ma -->
    <g transform="translate(788.223564 90.146882) rotate(-90) scale(0.08 -0.08)">
     <defs>
      <path id="DejaVuSerif-38" d="M 2981 1275 
Q 2981 1775 2732 2051 
Q 2484 2328 2034 2328 
Q 1584 2328 1336 2051 
Q 1088 1775 1088 1275 
Q 1088 772 1336 495 
Q 1584 219 2034 219 
Q 2484 219 2732 495 
Q 2981 772 2981 1275 
z
M 2853 3541 
Q 2853 3966 2637 4203 
Q 2422 4441 2034 4441 
Q 1650 4441 1433 4203 
Q 1216 3966 1216 3541 
Q 1216 3113 1433 2875 
Q 1650 2638 2034 2638 
Q 2422 2638 2637 2875 
Q 2853 3113 2853 3541 
z
M 2516 2484 
Q 3047 2413 3344 2092 
Q 3641 1772 3641 1275 
Q 3641 619 3225 264 
Q 2809 -91 2034 -91 
Q 1263 -91 845 264 
Q 428 619 428 1275 
Q 428 1772 725 2092 
Q 1022 2413 1556 2484 
Q 1084 2569 832 2842 
Q 581 3116 581 3541 
Q 581 4103 968 4426 
Q 1356 4750 2034 4750 
Q 2713 4750 3100 4426 
Q 3488 4103 3488 3541 
Q 3488 3116 3236 2842 
Q 2984 2569 2516 2484 
z
" transform="scale(0.015625)"/>
     </defs>
     <use xlink:href="#DejaVuSerif-74"/>
     <use xlink:href="#DejaVuSerif-72" x="40.185547"/>
     <use xlink:href="#DejaVuSerif-75" x="87.988281"/>
     <use xlink:href="#DejaVuSerif-65" x="152.392578"/>
     <use xlink:href="#DejaVuSerif-20" x="211.572266"/>
     <use xlink:href="#DejaVuSerif-31" x="243.359375"/>
     <use xlink:href="#DejaVuSerif-38" x="306.982422"/>
     <use xlink:href="#DejaVuSerif-30" x="370.605469"/>
     <use xlink:href="#DejaVuSerif-30" x="434.228516"/>
     <use xlink:href="#DejaVuSerif-20" x="497.851562"/>
     <use xlink:href="#DejaVuSerif-4d" x="529.638672"/>
     <use xlink:href="#DejaVuSerif-61" x="632.03125"/>
    </g>
   </g>
   <g id="text_22">
    <!-- raw median 1779 Ma -->
    <g transform="translate(787.649236 121.128132) rotate(-90) scale(0.08 -0.08)">
     <defs>
      <path id="DejaVuSerif-77" d="M 3072 3322 
L 3922 728 
L 4672 2988 
L 4191 2988 
L 4191 3322 
L 5394 3322 
L 5394 2988 
L 5025 2988 
L 4038 0 
L 3559 0 
L 2741 2484 
L 1919 0 
L 1459 0 
L 475 2988 
L 103 2988 
L 103 3322 
L 1606 3322 
L 1606 2988 
L 1069 2988 
L 1813 728 
L 2669 3322 
L 3072 3322 
z
" transform="scale(0.015625)"/>
      <path id="DejaVuSerif-6d" d="M 3316 2675 
Q 3481 3041 3739 3227 
Q 3997 3413 4341 3413 
Q 4863 3413 5119 3089 
Q 5375 2766 5375 2113 
L 5375 331 
L 5894 331 
L 5894 0 
L 4300 0 
L 4300 331 
L 4800 331 
L 4800 2047 
Q 4800 2556 4650 2772 
Q 4500 2988 4153 2988 
Q 3769 2988 3567 2697 
Q 3366 2406 3366 1850 
L 3366 331 
L 3866 331 
L 3866 0 
L 2291 0 
L 2291 331 
L 2791 331 
L 2791 2069 
Q 2791 2566 2641 2777 
Q 2491 2988 2144 2988 
Q 1759 2988 1557 2697 
Q 1356 2406 1356 1850 
L 1356 331 
L 1856 331 
L 1856 0 
L 263 0 
L 263 331 
L 781 331 
L 781 2994 
L 231 2994 
L 231 3322 
L 1356 3322 
L 1356 2731 
Q 1516 3063 1762 3238 
Q 2009 3413 2322 3413 
Q 2709 3413 2968 3220 
Q 3228 3028 3316 2675 
z
" transform="scale(0.015625)"/>
      <path id="DejaVuSerif-69" d="M 622 4353 
Q 622 4497 726 4603 
Q 831 4709 978 4709 
Q 1122 4709 1226 4603 
Q 1331 4497 1331 4353 
Q 1331 4206 1228 4103 
Q 1125 4000 978 4000 
Q 831 4000 726 4103 
Q 622 4206 622 4353 
z
M 1356 331 
L 1900 331 
L 1900 0 
L 231 0 
L 231 331 
L 781 331 
L 781 2988 
L 231 2988 
L 231 3322 
L 1356 3322 
L 1356 331 
z
" transform="scale(0.015625)"/>
      <path id="DejaVuSerif-39" d="M 2994 2091 
Q 2784 1856 2512 1740 
Q 2241 1625 1900 1625 
Q 1206 1625 804 2044 
Q 403 2463 403 3188 
Q 403 3897 839 4323 
Q 1275 4750 2003 4750 
Q 2794 4750 3217 4161 
Q 3641 3572 3641 2478 
Q 3641 1253 3137 581 
Q 2634 -91 1722 -91 
Q 1475 -91 1203 -44 
Q 931 3 647 97 
L 647 872 
L 997 872 
Q 1038 556 1241 387 
Q 1444 219 1784 219 
Q 2391 219 2687 676 
Q 2984 1134 2994 2091 
z
M 1978 4441 
Q 1534 4441 1298 4117 
Q 1063 3794 1063 3188 
Q 1063 2581 1298 2256 
Q 1534 1931 1978 1931 
Q 2422 1931 2658 2245 
Q 2894 2559 2894 3150 
Q 2894 3772 2656 4106 
Q 2419 4441 1978 4441 
z
" transform="scale(0.015625)"/>
     </defs>
     <use xlink:href="#DejaVuSerif-72"/>
     <use xlink:href="#DejaVuSerif-61" x="47.802734"/>
     <use xlink:href="#DejaVuSerif-77" x="107.421875"/>
     <use xlink:href="#DejaVuSerif-20" x="193.017578"/>
     <use xlink:href="#DejaVuSerif-6d" x="224.804688"/>
     <use xlink:href="#DejaVuSerif-65" x="319.628906"/>
     <use xlink:href="#DejaVuSerif-64" x="378.808594"/>
     <use xlink:href="#DejaVuSerif-69" x="442.822266"/>
     <use xlink:href="#DejaVuSerif-61" x="474.804688"/>
     <use xlink:href="#DejaVuSerif-6e" x="534.423828"/>
     <use xlink:href="#DejaVuSerif-20" x="598.828125"/>
     <use xlink:href="#DejaVuSerif-31" x="630.615234"/>
     <use xlink:href="#DejaVuSerif-37" x="694.238281"/>
     <use xlink:href="#DejaVuSerif-37" x="757.861328"/>
     <use xlink:href="#DejaVuSerif-39" x="821.484375"/>
     <use xlink:href="#DejaVuSerif-20" x="885.107422"/>
     <use xlink:href="#DejaVuSerif-4d" x="916.894531"/>
     <use xlink:href="#DejaVuSerif-61" x="1019.287109"/>
    </g>
   </g>
   <g id="text_23">
    <!-- pen median 383 Ma -->
    <g transform="translate(234.532388 115.605632) rotate(-90) scale(0.08 -0.08)">
     <defs>
      <path id="DejaVuSerif-70" d="M 1313 1825 
L 1313 1497 
Q 1313 897 1542 583 
Q 1772 269 2209 269 
Q 2650 269 2876 622 
Q 3103 975 3103 1663 
Q 3103 2353 2876 2703 
Q 2650 3053 2209 3053 
Q 1772 3053 1542 2737 
Q 1313 2422 1313 1825 
z
M 738 2988 
L 184 2988 
L 184 3322 
L 1313 3322 
L 1313 2803 
Q 1481 3116 1742 3264 
Q 2003 3413 2388 3413 
Q 3000 3413 3387 2928 
Q 3775 2444 3775 1663 
Q 3775 881 3387 395 
Q 3000 -91 2388 -91 
Q 2003 -91 1742 57 
Q 1481 206 1313 519 
L 1313 -997 
L 1856 -997 
L 1856 -1331 
L 184 -1331 
L 184 -997 
L 738 -997 
L 738 2988 
z
" transform="scale(0.015625)"/>
     </defs>
     <use xlink:href="#DejaVuSerif-70"/>
     <use xlink:href="#DejaVuSerif-65" x="64.013672"/>
     <use xlink:href="#DejaVuSerif-6e" x="123.193359"/>
     <use xlink:href="#DejaVuSerif-20" x="187.597656"/>
     <use xlink:href="#DejaVuSerif-6d" x="219.384766"/>
     <use xlink:href="#DejaVuSerif-65" x="314.208984"/>
     <use xlink:href="#DejaVuSerif-64" x="373.388672"/>
     <use xlink:href="#DejaVuSerif-69" x="437.402344"/>
     <use xlink:href="#DejaVuSerif-61" x="469.384766"/>
     <use xlink:href="#DejaVuSerif-6e" x="529.003906"/>
     <use xlink:href="#DejaVuSerif-20" x="593.408203"/>
     <use xlink:href="#DejaVuSerif-33" x="625.195312"/>
     <use xlink:href="#DejaVuSerif-38" x="688.818359"/>
     <use xlink:href="#DejaVuSerif-33" x="752.441406"/>
     <use xlink:href="#DejaVuSerif-20" x="816.064453"/>
     <use xlink:href="#DejaVuSerif-4d" x="847.851562"/>
     <use xlink:href="#DejaVuSerif-61" x="950.244141"/>
    </g>
   </g>
   <g id="line2d_45">
    <path d="M 195.685972 489.316765 
L 195.685972 25.538824 
" clip-path="url(#p96db6b5e15)" style="fill: none; stroke-dasharray: 1.2,1.98; stroke-dashoffset: 0; stroke: #00008b; stroke-width: 1.2"/>
   </g>
   <g id="line2d_46">
    <path d="M 789.887314 489.316765 
L 789.887314 25.538824 
" clip-path="url(#p96db6b5e15)" style="fill: none; stroke-dasharray: 1.2,1.98; stroke-dashoffset: 0; stroke: #00008b; stroke-width: 1.2"/>
   </g>
   <g id="line2d_47">
    <path d="M 781.570486 489.316765 
L 781.570486 25.538824 
" clip-path="url(#p96db6b5e15)" style="fill: none; stroke-dasharray: 4.2,2.8; stroke-dashoffset: 0; stroke: #262626; stroke-width: 1.4"/>
   </g>
   <g id="legend_1">
    <g id="patch_9">
     <path d="M 699.01416 445.111765 
L 715.01416 445.111765 
L 715.01416 439.511765 
L 699.01416 439.511765 
z
" style="fill: #bfbfbf; opacity: 0.4; stroke: #bfbfbf; stroke-linejoin: miter"/>
    </g>
    <g id="text_24">
     <!-- raw 95% run-optima interval -->
     <g transform="translate(721.41416 445.111765) scale(0.08 -0.08)">
      <defs>
       <path id="DejaVuSerif-25" d="M 1434 4459 
Q 1159 4459 1004 4200 
Q 850 3941 850 3475 
Q 850 3016 1008 2753 
Q 1166 2491 1434 2491 
Q 1700 2491 1854 2752 
Q 2009 3013 2009 3475 
Q 2009 3938 1854 4198 
Q 1700 4459 1434 4459 
z
M 4653 2169 
Q 4381 2169 4226 1906 
Q 4072 1644 4072 1178 
Q 4072 719 4228 458 
Q 4384 197 4653 197 
Q 4922 197 5075 458 
Q 5228 719 5228 1178 
Q 5228 1641 5073 1905 
Q 4919 2169 4653 2169 
z
M 4653 2450 
Q 5147 2450 5437 2106 
Q 5728 1763 5728 1178 
Q 5728 594 5436 251 
Q 5144 -91 4653 -91 
Q 4153 -91 3862 251 
Q 3572 594 3572 1178 
Q 3572 1766 3864 2108 
Q 4156 2450 4653 2450 
z
M 4263 4750 
L 4738 4750 
L 1819 -91 
L 1344 -91 
L 4263 4750 
z
M 1428 4750 
Q 1922 4750 2215 4408 
Q 2509 4066 2509 3481 
Q 2509 2891 2217 2550 
Q 1925 2209 1428 2209 
Q 931 2209 642 2551 
Q 353 2894 353 3481 
Q 353 4063 643 4406 
Q 934 4750 1428 4750 
z
" transform="scale(0.015625)"/>
       <path id="DejaVuSerif-76" d="M 1581 0 
L 359 2988 
L -19 2988 
L -19 3322 
L 1509 3322 
L 1509 2988 
L 978 2988 
L 1913 703 
L 2847 2988 
L 2350 2988 
L 2350 3322 
L 3597 3322 
L 3597 2988 
L 3225 2988 
L 2003 0 
L 1581 0 
z
" transform="scale(0.015625)"/>
      </defs>
      <use xlink:href="#DejaVuSerif-72"/>
      <use xlink:href="#DejaVuSerif-61" x="47.802734"/>
      <use xlink:href="#DejaVuSerif-77" x="107.421875"/>
      <use xlink:href="#DejaVuSerif-20" x="193.017578"/>
      <use xlink:href="#DejaVuSerif-39" x="224.804688"/>
      <use xlink:href="#DejaVuSerif-35" x="288.427734"/>
      <use xlink:href="#DejaVuSerif-25" x="352.050781"/>
      <use xlink:href="#DejaVuSerif-20" x="447.070312"/>
      <use xlink:href="#DejaVuSerif-72" x="478.857422"/>
      <use xlink:href="#DejaVuSerif-75" x="526.660156"/>
      <use xlink:href="#DejaVuSerif-6e" x="591.064453"/>
      <use xlink:href="#DejaVuSerif-2d" x="655.46875"/>
      <use xlink:href="#DejaVuSerif-6f" x="689.257812"/>
      <use xlink:href="#DejaVuSerif-70" x="749.462891"/>
      <use xlink:href="#DejaVuSerif-74" x="813.476562"/>
      <use xlink:href="#DejaVuSerif-69" x="853.662109"/>
      <use xlink:href="#DejaVuSerif-6d" x="885.644531"/>
      <use xlink:href="#DejaVuSerif-61" x="980.46875"/>
      <use xlink:href="#DejaVuSerif-20" x="1040.087891"/>
      <use xlink:href="#DejaVuSerif-69" x="1071.875"/>
      <use xlink:href="#DejaVuSerif-6e" x="1103.857422"/>
      <use xlink:href="#DejaVuSerif-74" x="1168.261719"/>
      <use xlink:href="#DejaVuSerif-65" x="1208.447266"/>
      <use xlink:href="#DejaVuSerif-72" x="1267.626953"/>
      <use xlink:href="#DejaVuSerif-76" x="1315.429688"/>
      <use xlink:href="#DejaVuSerif-61" x="1371.923828"/>
      <use xlink:href="#DejaVuSerif-6c" x="1431.542969"/>
     </g>
    </g>
    <g id="patch_10">
     <path d="M 699.01416 456.854265 
L 715.01416 456.854265 
L 715.01416 451.254265 
L 699.01416 451.254265 
z
" style="fill: #d62728; opacity: 0.18; stroke: #d62728; stroke-linejoin: miter"/>
    </g>
    <g id="text_25">
     <!-- penalised 95% run-optima interval -->
     <g transform="translate(721.41416 456.854265) scale(0.08 -0.08)">
      <use xlink:href="#DejaVuSerif-70"/>
      <use xlink:href="#DejaVuSerif-65" x="64.013672"/>
      <use xlink:href="#DejaVuSerif-6e" x="123.193359"/>
      <use xlink:href="#DejaVuSerif-61" x="187.597656"/>
      <use xlink:href="#DejaVuSerif-6c" x="247.216797"/>
      <use xlink:href="#DejaVuSerif-69" x="279.199219"/>
      <use xlink:href="#DejaVuSerif-73" x="311.181641"/>
      <use xlink:href="#DejaVuSerif-65" x="362.5"/>
      <use xlink:href="#DejaVuSerif-64" x="421.679688"/>
      <use xlink:href="#DejaVuSerif-20" x="485.693359"/>
      <use xlink:href="#DejaVuSerif-39" x="517.480469"/>
      <use xlink:href="#DejaVuSerif-35" x="581.103516"/>
      <use xlink:href="#DejaVuSerif-25" x="644.726562"/>
      <use xlink:href="#DejaVuSerif-20" x="739.746094"/>
      <use xlink:href="#DejaVuSerif-72" x="771.533203"/>
      <use xlink:href="#DejaVuSerif-75" x="819.335938"/>
      <use xlink:href="#DejaVuSerif-6e" x="883.740234"/>
      <use xlink:href="#DejaVuSerif-2d" x="948.144531"/>
      <use xlink:href="#DejaVuSerif-6f" x="981.933594"/>
      <use xlink:href="#DejaVuSerif-70" x="1042.138672"/>
      <use xlink:href="#DejaVuSerif-74" x="1106.152344"/>
      <use xlink:href="#DejaVuSerif-69" x="1146.337891"/>
      <use xlink:href="#DejaVuSerif-6d" x="1178.320312"/>
      <use xlink:href="#DejaVuSerif-61" x="1273.144531"/>
      <use xlink:href="#DejaVuSerif-20" x="1332.763672"/>
      <use xlink:href="#DejaVuSerif-69" x="1364.550781"/>
      <use xlink:href="#DejaVuSerif-6e" x="1396.533203"/>
      <use xlink:href="#DejaVuSerif-74" x="1460.9375"/>
      <use xlink:href="#DejaVuSerif-65" x="1501.123047"/>
      <use xlink:href="#DejaVuSerif-72" x="1560.302734"/>
      <use xlink:href="#DejaVuSerif-76" x="1608.105469"/>
      <use xlink:href="#DejaVuSerif-61" x="1664.599609"/>
      <use xlink:href="#DejaVuSerif-6c" x="1724.21875"/>
     </g>
    </g>
    <g id="line2d_48">
     <path d="M 699.01416 465.796765 
L 707.01416 465.796765 
L 715.01416 465.796765 
" style="fill: none; stroke-dasharray: 4.44,1.92; stroke-dashoffset: 0; stroke: #404040; stroke-width: 1.2"/>
    </g>
    <g id="text_26">
     <!-- raw (no penalty) -->
     <g transform="translate(721.41416 468.596765) scale(0.08 -0.08)">
      <defs>
       <path id="DejaVuSerif-79" d="M 1381 -609 
L 1600 -56 
L 359 2988 
L -19 2988 
L -19 3322 
L 1509 3322 
L 1509 2988 
L 978 2988 
L 1913 703 
L 2847 2988 
L 2350 2988 
L 2350 3322 
L 3597 3322 
L 3597 2988 
L 3225 2988 
L 1703 -750 
Q 1547 -1138 1356 -1280 
Q 1166 -1422 819 -1422 
Q 672 -1422 517 -1397 
Q 363 -1372 206 -1325 
L 206 -691 
L 500 -691 
Q 519 -903 608 -995 
Q 697 -1088 884 -1088 
Q 1056 -1088 1161 -992 
Q 1266 -897 1381 -609 
z
" transform="scale(0.015625)"/>
      </defs>
      <use xlink:href="#DejaVuSerif-72"/>
      <use xlink:href="#DejaVuSerif-61" x="47.802734"/>
      <use xlink:href="#DejaVuSerif-77" x="107.421875"/>
      <use xlink:href="#DejaVuSerif-20" x="193.017578"/>
      <use xlink:href="#DejaVuSerif-28" x="224.804688"/>
      <use xlink:href="#DejaVuSerif-6e" x="263.818359"/>
      <use xlink:href="#DejaVuSerif-6f" x="328.222656"/>
      <use xlink:href="#DejaVuSerif-20" x="388.427734"/>
      <use xlink:href="#DejaVuSerif-70" x="420.214844"/>
      <use xlink:href="#DejaVuSerif-65" x="484.228516"/>
      <use xlink:href="#DejaVuSerif-6e" x="543.408203"/>
      <use xlink:href="#DejaVuSerif-61" x="607.8125"/>
      <use xlink:href="#DejaVuSerif-6c" x="667.431641"/>
      <use xlink:href="#DejaVuSerif-74" x="699.414062"/>
      <use xlink:href="#DejaVuSerif-79" x="739.599609"/>
      <use xlink:href="#DejaVuSerif-29" x="796.09375"/>
     </g>
    </g>
    <g id="line2d_49">
     <path d="M 699.01416 477.653015 
L 707.01416 477.653015 
L 715.01416 477.653015 
" style="fill: none; stroke: #d62728; stroke-width: 1.6; stroke-linecap: square"/>
    </g>
    <g id="text_27">
     <!-- penalised -->
     <g transform="translate(721.41416 480.453015) scale(0.08 -0.08)">
      <use xlink:href="#DejaVuSerif-70"/>
      <use xlink:href="#DejaVuSerif-65" x="64.013672"/>
      <use xlink:href="#DejaVuSerif-6e" x="123.193359"/>
      <use xlink:href="#DejaVuSerif-61" x="187.597656"/>
      <use xlink:href="#DejaVuSerif-6c" x="247.216797"/>
      <use xlink:href="#DejaVuSerif-69" x="279.199219"/>
      <use xlink:href="#DejaVuSerif-73" x="311.181641"/>
      <use xlink:href="#DejaVuSerif-65" x="362.5"/>
      <use xlink:href="#DejaVuSerif-64" x="421.679688"/>
     </g>
    </g>
   </g>
   <g id="line2d_50">
    <path d="M 228.453638 489.316765 
L 228.453638 25.538824 
" clip-path="url(#p96db6b5e15)" style="fill: none; stroke: #d62728; stroke-width: 1.6; stroke-linecap: square"/>
   </g>
  </g>
 </g>
 <defs>
  <clipPath id="p96db6b5e15">
   <rect x="76.845704" y="25.538824" width="792.268456" height="463.777941"/>
  </clipPath>
 </defs>
</svg>
